<svg width="103" height="102" viewBox="0 0 103 102" fill="none" xmlns="http://www.w3.org/2000/svg">
  <rect x="0.72" y="0.99" width="101.9" height="100.93" rx="19.66" fill="#0a0a0f"/>
  <path d="M30 46C24 34 16 31 13 36C10 41 18 52 26 49L30 46Z" fill="#C41E3A" stroke="#8B1A1A" stroke-width="2"/>
  <path d="M73 46C79 34 87 31 90 36C93 41 85 52 77 49L73 46Z" fill="#C41E3A" stroke="#8B1A1A" stroke-width="2"/>
  <path d="M38 40C35 32 30 27 27 29C24 31 30 42 38 44L38 40Z" fill="#C41E3A" stroke="#8B1A1A" stroke-width="1"/>
  <path d="M65 40C68 32 73 27 76 29C79 31 73 42 65 44L65 40Z" fill="#C41E3A" stroke="#8B1A1A" stroke-width="1"/>
  <ellipse cx="51.5" cy="58" rx="18" ry="22" fill="#8B1A1A"/>
  <ellipse cx="51.5" cy="55" rx="14" ry="16" fill="#C41E3A" opacity="0.5"/>
  <circle cx="44" cy="50" r="4" fill="#F5E6E0" opacity="0.8"/>
  <circle cx="59" cy="50" r="4" fill="#F5E6E0" opacity="0.8"/>
  <circle cx="44" cy="50" r="2" fill="#0a0a0f"/>
  <circle cx="59" cy="50" r="2" fill="#0a0a0f"/>
  <path d="M47 65C49 67.5 54 67.5 56 65" stroke="#F5E6E0" stroke-width="1" opacity="0.4" fill="none"/>
</svg>
